<?xml version="1.0" encoding="UTF-8" standalone="no"?>
<!-- Created with Inkscape (http://www.inkscape.org/) -->

<svg
   xmlns:dc="http://purl.org/dc/elements/1.1/"
   xmlns:cc="http://creativecommons.org/ns#"
   xmlns:rdf="http://www.w3.org/1999/02/22-rdf-syntax-ns#"
   xmlns:svg="http://www.w3.org/2000/svg"
   xmlns="http://www.w3.org/2000/svg"
   xmlns:sodipodi="http://sodipodi.sourceforge.net/DTD/sodipodi-0.dtd"
   xmlns:inkscape="http://www.inkscape.org/namespaces/inkscape"
   width="1024"
   height="1024"
   id="svg3348"
   version="1.1"
   inkscape:version="0.48.4 r9939"
   sodipodi:docname="logo.svg">
  <defs
     id="defs3350">
    <clipPath
       id="clipPath3370"
       clipPathUnits="userSpaceOnUse">
      <path
         id="path3372"
         d="m 0,2000 2000,0 L 2000,0 0,0 0,2000 z"
         inkscape:connector-curvature="0" />
    </clipPath>
  </defs>
  <sodipodi:namedview
     id="base"
     pagecolor="#ffffff"
     bordercolor="#666666"
     borderopacity="1.0"
     inkscape:pageopacity="0.0"
     inkscape:pageshadow="2"
     inkscape:zoom="1"
     inkscape:cx="373.13154"
     inkscape:cy="455.38518"
     inkscape:document-units="px"
     inkscape:current-layer="layer2"
     showgrid="false"
     showguides="true"
     inkscape:guide-bbox="true"
     inkscape:window-width="2560"
     inkscape:window-height="1378"
     inkscape:window-x="-8"
     inkscape:window-y="-8"
     inkscape:window-maximized="1">
    <sodipodi:guide
       orientation="0,1"
       position="0,512"
       id="guide3645" />
    <sodipodi:guide
       orientation="1,0"
       position="512,0"
       id="guide3649" />
  </sodipodi:namedview>
  <metadata
     id="metadata3353">
    <rdf:RDF>
      <cc:Work
         rdf:about="">
        <dc:format>image/svg+xml</dc:format>
        <dc:type
           rdf:resource="http://purl.org/dc/dcmitype/StillImage" />
        <dc:title />
      </cc:Work>
    </rdf:RDF>
  </metadata>
  <g
     inkscape:groupmode="layer"
     id="C1"
     inkscape:label="C1"
     style="display:inline">
    <g
       style="display:inline"
       transform="matrix(0.5082722,0,0,-0.5082722,487.10712,455.00744)"
       id="g3462">
      <path
         id="path3464"
         style="fill:#231f20;fill-opacity:1;fill-rule:evenodd;stroke:none"
         d="m 0,0 2,0 0,-20 c -8.024,-8.666 -17.27,-11.702 -25,-19 -20.282,-19.149 -35.782,-48.164 -33,-87 4.132,-57.682 52.402,-100.887 112,-99 57.956,1.835 101.84,51.92 103,105 1.059,48.431 -25.817,79.047 -59,99 l 0,21 c 19.148,-7.854 30.232,-15.106 42,-27 30.458,-30.786 47.36,-88.338 27,-138 -16.373,-39.936 -57.834,-74.366 -105,-78 -47.252,-3.64 -80.55,14.55 -104,38 -19.824,19.824 -33.875,49.806 -36,79 -4.334,59.546 29.502,103.655 76,126"
         inkscape:connector-curvature="0" />
    </g>
    <g
       style="display:inline"
       transform="matrix(0.5082722,0,0,-0.5082722,443.39575,508.37597)"
       id="g3458">
      <path
         sodipodi:nodetypes="cssscccccsccccccsccsscccccssccc"
         id="path3460"
         style="fill:#231f20;fill-opacity:1;fill-rule:evenodd;stroke:none"
         d="m 0,0 c -3.32,-49.517 15.875,-86.967 43,-112 26.503,-24.459 70.583,-43.661 119,-35 58.881,10.533 107.673,60.464 112,125 2.927,43.653 -12.53,77.41 -32,100 -16.783,19.473 -38.428,33.779 -67,42 l 0,-40 c 34.884,-17.74 61.73,-46.11 62,-92 0.293,-49.964 -35.579,-89.896 -81,-98 -53.854,-9.608 -96.273,23.491 -111,60 -20.143,49.936 5.863,100.506 40,122 3.971,2.5 8.873,3.777 13,8 l 0,40 -2,0 C 45.36,101.777 4.014,59.86 0,0 m 156,145 c 44.471,-6.826 72.324,-22.969 97,-49 23.499,-24.79 40.696,-59.403 43,-101 5.021,-90.671 -66.245,-160.356 -149,-166 -51.363,-3.502 -88.39,17.785 -116,42 -29.338,25.73 -55.893,67.592 -52,127 2.753,42.01 20.647,73.779 43,98 23.099,25.028 52.572,42.272 93,48 l 0,-79 C 108.45026,61.683896 106.031,60.021 102,58 78.791,46.366 56.583,16.672 60,-20 c 2.261,-24.262 18.042,-46.487 35,-57 67.57,-41.889 150.756,34.229 108,106 -9.286,15.588 -25.858,28.91 -48,35 l 0,78 c -0.086,1.419 -0.165,2.832 1,3"
         inkscape:connector-curvature="0" />
    </g>
  </g>
  <g
     inkscape:groupmode="layer"
     id="C2"
     inkscape:label="C2"
     style="display:inline">
    <g
       style="display:inline"
       transform="matrix(0.5082722,0,0,-0.5082722,501.847,421.46144)"
       id="g3450">
      <path
         id="path3452"
         style="fill:#231f20;fill-opacity:1;fill-rule:evenodd;stroke:none"
         d="m 0,0 0,-16 c -74.543,-13.79 -119.955,-56.713 -140,-125 -3.907,-0.615 -11.405,3.047 -16,5 22.273,75.06 71.334,123.333 156,136"
         inkscape:connector-curvature="0" />
    </g>
    <g
       style="display:inline"
       transform="matrix(0.5082722,0,0,-0.5082722,428.65587,529.72259)"
       id="g3486">
      <path
         id="path3488"
         style="fill:#231f20;fill-opacity:1;fill-rule:evenodd;stroke:none"
         d="m 0,0 c 2.984,-2.345 3.83,-8.478 5,-13 17.267,-66.738 67.389,-109.416 140,-123 l 0,-16 C 56.014,-138.652 5.603,-86.731 -15,-5 c 4.162,2.505 9.979,3.355 15,5"
         inkscape:connector-curvature="0" />
    </g>
  </g>
  <g
     inkscape:groupmode="layer"
     id="C3"
     inkscape:label="C3"
     style="display:inline">
    <g
       style="display:inline"
       transform="matrix(0.5082722,0,0,-0.5082722,536.91788,636.45959)"
       id="g3438">
      <path
         id="path3440"
         style="fill:#231f20;fill-opacity:1;fill-rule:evenodd;stroke:none"
         d="m 0,0 0,19 c 64.704,16.662 111.87,50.247 144,100 31.696,49.084 47.008,123.835 22,196 -19.51,56.297 -60.713,102.718 -115,129 -27.224,13.18 -60.671,22 -100,22 -37.292,0 -68.878,-8.578 -98,-23 -9.242,-4.578 -14.922,-9.65 -26,-14 -2.085,5.248 -6.19,8.476 -9,13 6.007,7.58 15.684,10.73 24,15 25.431,13.056 56.06,24.521 92,27 76.739,5.292 138.791,-22.83 179,-58 42.097,-36.822 74.894,-88.052 83,-153 C 205.428,197.461 181.651,133.131 147,89 112.103,44.556 65.203,12.946 0,0"
         inkscape:connector-curvature="0" />
    </g>
    <g
       style="display:inline"
       transform="matrix(0.5082722,0,0,-0.5082722,440.85437,424.51119)"
       id="g3446">
      <path
         id="path3448"
         style="fill:#231f20;fill-opacity:1;fill-rule:evenodd;stroke:none"
         d="m 0,0 c -47.681,-44.228 -88.075,-100.358 -83,-192 3.096,-55.892 26.581,-99.048 56,-133 29.993,-34.614 70.194,-60.203 118,-71 l 0,-20 c -54.706,10.723 -97.997,38.269 -131,76 -32.031,36.62 -58.221,83.164 -62,144 -5.922,95.327 36.849,164.804 91,209 C -6.983,9.017 -3.585,4.414 0,0"
         inkscape:connector-curvature="0" />
    </g>
    <g
       style="display:inline"
       transform="matrix(0.5082722,0,0,-0.5082722,612.142,597.32267)"
       id="g3434">
      <path
         id="path3436"
         style="fill:#231f20;fill-opacity:1;fill-rule:evenodd;stroke:none"
         d="m 0,0 c 36.605,43.987 63.483,105.641 57,185 -5.881,71.977 -37.921,124.218 -80,164 -40.309,38.107 -102.268,69.056 -177,67 -77.351,-2.128 -129.569,-32.99 -171,-72 -40.614,-38.242 -70.775,-92.339 -76,-163 -5.523,-74.697 21.248,-136.515 57,-180 36.674,-44.606 84.76,-73.668 152,-88 l 0,39 c -55.343,13.339 -95.362,38.928 -126,78 -29.483,37.6 -52.603,91.02 -45,158 6.536,57.576 33.318,102.897 69,135 36.508,32.845 84.123,56.349 149,56 62.978,-0.339 111.515,-26.224 145,-59 C -10.447,285.2 14.973,242.532 20,181 25.388,115.053 2.336,64.449 -28,27 c -31.171,-38.479 -72.188,-64.286 -129,-76 0.663,-12.67 -1.329,-27.996 1,-39 68.315,13.465 118.414,42.836 156,88 m -178,-111 0,80 c 54.901,6.708 94.653,28.337 125,61 29.935,32.22 53,75.265 53,133 0,58.982 -21.521,101.325 -52,134 -29.022,31.112 -71.249,57.087 -125,61 -63.44,4.617 -112.237,-17.501 -146,-48 -33.818,-30.549 -61.24,-72.19 -66,-128 -5.291,-62.043 17.347,-110.594 47,-145 30.307,-35.164 68.952,-60.097 126,-67 l 0,-81 c -81.257,6.794 -134.689,39.917 -178,85 -43.143,44.909 -74.781,107.206 -76,187 -1.272,83.308 33.236,144.592 74,189 43.322,47.194 98.374,76.925 177,86 88.949,10.266 161.106,-28.317 208,-70 C 38.506,321.995 72.705,262.966 79,180 85.525,93.991 50.896,22.375 8,-23 -37.215,-70.827 -94.934,-105.582 -178,-111"
         inkscape:connector-curvature="0" />
    </g>
  </g>
  <g
     inkscape:label="Ebene 1"
     inkscape:groupmode="layer"
     id="layer1"
     transform="translate(0,-28.362183)"
     style="display:inline">
    <g
       transform="matrix(1.25,0,0,-1.25,-898.768,1784.3185)"
       inkscape:label="pendulum_logo"
       id="g3364">
      <g
         transform="matrix(0.40661776,0,0,0.40661776,1190.4302,1366.0529)"
         id="g3374">
        <path
           id="path3376"
           style="fill:#231f20;fill-opacity:1;fill-rule:evenodd;stroke:none"
           d="m 0,0 c -0.884,-16.449 -5.116,-29.551 -6,-46 -147.821,25.121 -316.696,4.672 -431,-36 -5.814,13.853 -10.901,28.432 -17,42 18.473,8.011 39.003,14.241 60,20 109.241,29.962 263.864,43.907 394,20"
           inkscape:connector-curvature="0" />
      </g>
      <g
         transform="matrix(0.40661776,0,0,0.40661776,1203.0354,1357.9206)"
         id="g3378">
        <path
           id="path3380"
           style="fill:#231f20;fill-opacity:1;fill-rule:evenodd;stroke:none"
           d="m 0,0 c 159.039,-31.629 283.24,-98.087 389.999,-182 -3.346,-6.654 -8.587,-11.413 -14,-16 C 271.01,-117.321 150.251,-52.417 -4,-21 c 1.957,6.376 0.379,16.288 4,21"
           inkscape:connector-curvature="0" />
      </g>
      <g
         transform="matrix(0.40661776,0,0,0.40661776,997.69345,1346.9418)"
         id="g3382">
        <path
           id="path3384"
           style="fill:#231f20;fill-opacity:1;fill-rule:evenodd;stroke:none"
           d="m 0,0 c 6.58,-13.419 11.442,-28.558 17,-43 -140.794,-52.231 -257.176,-136.574 -351,-241 -93.485,-104.048 -163.625,-233.375 -200,-390.999 -19.2,-83.203 -26.059,-181.61 -18,-270 8.065,-88.455 29.414,-170.86 56,-240 54.676,-142.182 140.905,-255.251 245,-345.999 -13.483,-17.851 -29.883,-32.783 -44,-50 4.594,-4.073 9.187,-8.147 14,-12 17.361,13.972 27.539,35.128 45,49 105.957,-87.374 232.328,-154.346 394,-186 -0.823,-13.562 -6.517,-30.778 -9,-46 -109.507,20.705 -210.648,60.627 -297,112 -22.179,13.194 -48.42,30.102 -72,47 -3.804,2.726 -8.618,8.025 -9,8 -5.086,-0.348 -6.639,-11.419 -12,-14 7.719,-7.841 16.94,-14.719 26,-21 135.731,-94.105 301.856,-160.857 525,-168 -0.627,-12.373 1.28,-27.28 -1,-38 -238.009,6.475 -420.484,83.824 -567,191 -146.18,106.93 -259.825,250.104 -331,427.999 -36.125,90.293 -64.032,193.142 -69,311 -5.13,121.731 10.392,237.47 40,336.999 57.502,193.294 166.866,342.466 299,460 14.706,-11.96 25.343,-27.99 39,-41 80.578,66.755 173.434,126.567 280,164"
           inkscape:connector-curvature="0" />
      </g>
      <g
         transform="matrix(0.40661776,0,0,0.40661776,1239.2244,1321.7316)"
         id="g3386">
        <path
           id="path3388"
           style="fill:#231f20;fill-opacity:1;fill-rule:evenodd;stroke:none"
           d="m 0,0 c -0.562,-8.438 -4.687,-13.313 -6,-21 -72.663,23.003 -150.578,40.757 -245,42 -1.54,5.144 -1.754,16.89 0,22 C -154.274,41.726 -74.398,23.601 0,0"
           inkscape:connector-curvature="0" />
      </g>
      <g
         transform="matrix(0.40661776,0,0,0.40661776,1255.8957,1315.6323)"
         id="g3390">
        <path
           id="path3392"
           style="fill:#231f20;fill-opacity:1;fill-rule:evenodd;stroke:none"
           d="m 0,0 c 157.537,-63.5 284.705,-165.056 377.999,-294 93.207,-128.823 160.149,-293.198 159,-510.999 l -63,0 c -13.725,-280.281 -131.441,-456.543 -289,-592.999 25.226,-34.441 53.173,-66.162 78,-101 -70.94,-57.061 -150.546,-105.452 -242.999,-141 -5.058,4.275 -5.984,12.682 -10,18 19.553,9.735 39.708,18.024 59,27 57.127,26.577 110.256,59.704 158.999,96 -18.2,26.358 -35.146,48.71 -55,76 -2.591,3.562 -7.659,9.951 -8,10 -2.594,0.371 -16.454,-12.757 -20.999,-16 -105.151,-75.042 -240.662,-132.321 -406,-143 l 0,21 c 113.98,8.189 209.926,38.918 293,80 82.272,40.685 153.264,94.707 212.999,159 119.205,128.297 206.989,295.479 207,537.999 0.006,117.894 -31.311,217.892 -70,302.999 C 322.313,-341.901 236.337,-243.279 127,-166 19.205,-89.811 -116.638,-33.98 -293,-28 l 0,22 c 121.705,-2.467 224.24,-32.466 313,-73 87.762,-40.078 164.115,-95.012 225.999,-159 124.902,-129.146 220.247,-297.067 227,-542.999 l 42,0 c -5.063,227.988 -85.94,396.88 -195,525.999 -84.3,99.807 -195.145,180.625 -326.999,234 1.882,7.451 3.773,14.893 7,21"
           inkscape:connector-curvature="0" />
      </g>
      <g
         transform="matrix(0.40661776,0,0,0.40661776,1407.5637,1098.9052)"
         id="g3394">
        <path
           id="path3396"
           style="fill:#231f20;fill-opacity:1;fill-rule:evenodd;stroke:none"
           d="m 0,0 c -14.988,-4.678 -27.348,-11.985 -42,-17 -59.471,154.787 -161.977,274.099 -299.999,354 -98.814,57.202 -233.97,102.659 -398,89 -49.88,-4.154 -95.355,-13.308 -138,-25 -5.721,13.946 -11.836,27.497 -17,42 54.772,16.378 112.919,27.877 179,31 99.242,4.689 185.186,-11.909 261,-37 75.645,-25.036 140.265,-58.896 197,-100 C -140.301,251.728 -52.803,141.285 0,0"
           inkscape:connector-curvature="0" />
      </g>
      <g
         transform="matrix(0.40661776,0,0,0.40661776,1012.7385,1286.7625)"
         id="g3398">
        <path
           id="path3400"
           style="fill:#231f20;fill-opacity:1;fill-rule:evenodd;stroke:none"
           d="m 0,0 2,0 c 18.718,-42.615 38.495,-84.17 56,-128 -171.817,-68.873 -298.026,-193.192 -365,-369.999 -33.439,-88.276 -49.815,-201.211 -32,-318 16.103,-105.562 55.005,-191.278 104,-263 -4.62,-6.38 -11.066,-10.934 -18,-15 -71.774,104.547 -132.473,253.174 -115,436 5.279,55.235 17.534,105.931 33,152 61.506,183.207 189.754,309.32 353,387.999 -14.048,36.619 -30.452,70.882 -45,107 8.034,4.632 18.145,7.189 27,11"
           inkscape:connector-curvature="0" />
      </g>
      <g
         transform="matrix(0.40661776,0,0,0.40661776,1476.6887,1124.9288)"
         id="g3402">
        <path
           id="path3404"
           style="fill:#231f20;fill-opacity:1;fill-rule:evenodd;stroke:none"
           d="m 0,0 c -6.69,-1.976 -13.101,-4.232 -19,-7 -8.938,17.134 -15.191,34.74 -23,52 -53.568,118.404 -129.722,219.441 -222,301 3.597,6.737 9.739,10.928 15,16 C -141.53,265.799 -55.496,148.174 0,0"
           inkscape:connector-curvature="0" />
      </g>
      <g
         transform="matrix(0.40661776,0,0,0.40661776,1166.8464,1259.1127)"
         id="g3406">
        <path
           id="path3408"
           style="fill:#231f20;fill-opacity:1;fill-rule:evenodd;stroke:none"
           d="m 0,0 c -5.099,-44.712 -10.092,-84.355 -15,-130 198.252,-36.078 324.49,-144.182 400.999,-302 13.158,4.51 24.844,10.491 38,15 -17.924,44.409 -43.517,81.149 -69.999,117 4.092,6.241 12.242,8.424 18,13 10.666,-9.36 17.949,-22.307 25.999,-34 55.496,-80.607 94.72,-181.679 101,-313 -6.124,-2.208 -16.241,-0.424 -24,-1 -2.475,76.86 -18.306,140.359 -41,197 -20.522,-6.477 -39.007,-14.992 -57.999,-23 -10.56,20.911 -19.685,41.565 -31,61 -33.555,57.63 -76.353,106.17 -128,147 -67.777,53.581 -153.374,92.428 -262,104 5.312,50.022 11.048,99.619 16,150 -0.729,1.634 1.987,4.35 2,2 9.882,-0.118 18.572,-1.428 27,-3"
           inkscape:connector-curvature="0" />
      </g>
      <g
         transform="matrix(0.40661776,0,0,0.40661776,1124.5581,1234.7156)"
         id="g3410">
        <path
           id="path3412"
           style="fill:#231f20;fill-opacity:1;fill-rule:evenodd;stroke:none"
           d="m 0,0 c 2.208,-6.125 0.425,-16.242 1,-24 -172.868,-6.749 -296.501,-72.501 -387,-163 -90.617,-90.618 -159.368,-210.891 -169,-381 l -23,0 c 8.693,172.23 76.169,298.168 172,394 94.1,94.099 215.376,162.348 393,173 2.647,0.159 7.353,1.572 13,1"
           inkscape:connector-curvature="0" />
      </g>
      <g
         transform="matrix(0.40661776,0,0,0.40661776,1257.5221,847.61643)"
         id="g3414">
        <path
           id="path3416"
           style="fill:#231f20;fill-opacity:1;fill-rule:evenodd;stroke:none"
           d="m 0,0 c -10.313,11.354 -20.613,22.721 -31,34 75.808,73.715 144.089,171.368 145,321 0.683,112.168 -40.253,194.759 -89,263 -16.962,-10.705 -30.135,-25.199 -46,-37 -17.678,18.635 -33.605,38.374 -53,55 -57.229,49.059 -131.425,82.409 -232,89 0.636,14.031 -1.291,30.624 1,43 132.233,-5.436 218.19,-57.14 286,-127 5.647,2.685 8.605,8.061 14,11 -63.064,64.37 -149.684,119.078 -267,131 -130.841,13.295 -231.031,-32.499 -305,-88 -11.091,10.908 -20.911,23.089 -31,35 6.664,8.614 16.753,13.833 26,20 61.515,41.021 141.854,77.164 240,82 116.937,5.761 215.294,-29.516 291,-80 C 24.037,701.961 85.316,632.34 121,549 139.991,504.644 154.28,454.883 158.999,399 163.769,342.528 158.376,282.801 144,231 116.94,133.503 67.263,57.634 0,0"
           inkscape:connector-curvature="0" />
      </g>
      <g
         transform="matrix(0.40661776,0,0,0.40661776,1339.2519,1159.8979)"
         id="g3418">
        <path
           id="path3420"
           style="fill:#231f20;fill-opacity:1;fill-rule:evenodd;stroke:none"
           d="m 0,0 c 0.811,-0.19 0.997,-1.003 2,-1 55.07,-71.784 101.677,-160.129 125,-267 23.862,-109.339 16.835,-248.551 -18,-344 -8.629,1.372 -15.48,4.519 -22,8 32.594,90.447 40.321,224.773 16,333 -23.248,103.457 -66.679,189.2 -122,257 5.137,5.864 12.233,9.767 19,14"
           inkscape:connector-curvature="0" />
      </g>
      <g
         transform="matrix(0.40661776,0,0,0.40661776,1120.0854,1152.1722)"
         id="g3422">
        <path
           id="path3424"
           style="fill:#231f20;fill-opacity:1;fill-rule:evenodd;stroke:none"
           d="m 0,0 c 2.324,-6.343 0.341,-16.993 1,-25 -104.069,-8.595 -181.785,-51.166 -239,-108 -57.125,-56.745 -100.066,-134.416 -108,-239 l -24,0 c 5.896,108.743 50.704,193.704 113,256 57.765,57.764 148.044,112.217 257,116"
           inkscape:connector-curvature="0" />
      </g>
      <g
         transform="matrix(0.40661776,0,0,0.40661776,1008.6723,1125.742)"
         id="g3426">
        <path
           id="path3428"
           style="fill:#231f20;fill-opacity:1;fill-rule:evenodd;stroke:none"
           d="m 0,0 c -76.463,-73.305 -143.191,-174.14 -144,-324 -0.616,-113.965 40.601,-198.542 90,-268 -4.468,-6.199 -10.494,-10.838 -18,-14 -52.787,73.329 -93.625,162.099 -94,279 -0.428,133.218 54.75,236.595 120,310 10.929,12.296 20.997,24.248 33,33 4.231,-5.436 9.835,-9.498 13,-16"
           inkscape:connector-curvature="0" />
      </g>
      <g
         transform="matrix(0.40661776,0,0,0.40661776,1507.1851,1123.3023)"
         id="g3430">
        <path
           id="path3432"
           style="fill:#231f20;fill-opacity:1;fill-rule:evenodd;stroke:none"
           d="m 0,0 c 4.813,-3.851 5.232,-10.601 7,-16 26.8,-81.852 45.115,-177.393 47,-285 -7.432,0.568 -17.198,-1.198 -23,1 -1.843,111.824 -21.628,205.706 -50,291 4.108,5.225 12.744,5.923 19,9"
           inkscape:connector-curvature="0" />
      </g>
      <g
         transform="matrix(0.40661776,0,0,0.40661776,1406.7504,1084.6738)"
         id="g3442">
        <path
           id="path3444"
           style="fill:#231f20;fill-opacity:1;fill-rule:evenodd;stroke:none"
           d="m 0,0 2,0 c 37.011,-99.757 45.33,-251.021 20,-372 -23.836,-113.846 -75.193,-211.461 -134,-288 -60.984,-79.373 -136.831,-144.488 -227.999,-193.999 -91.589,-49.739 -200.367,-84.735 -334,-87 l 0,-64 c -240.091,-1.621 -415.859,92.813 -545,212 -65.977,60.892 -118.937,133.567 -163,217.999 -43.939,84.197 -73.797,183.806 -81.999,299 5.159,2.175 14.217,0.449 21,1 18.715,-219.683 111.033,-375.028 230.999,-494.999 29.381,-29.383 64.246,-57.04 100,-82 35.358,-24.684 75.476,-46.722 116,-65 84.358,-38.05 182.419,-63.105 296,-67 2.33,12.003 0.336,28.33 1,42 -44.031,3.503 -85.114,7.178 -124,15 -113.822,22.895 -208.546,69.482 -288,128 -105.413,77.636 -188.146,183.342 -240,313.999 6.129,2.872 11.019,6.981 18,9 39.13,-101.824 100.769,-187.876 176,-258.999 73.835,-69.805 167.715,-124.439 278,-157 83.894,-24.77 184.453,-35.79 288,-23 146.884,18.143 264.836,80.364 358,158 4.301,3.584 14.86,10.818 15,12 0.125,1.062 -7.458,9.961 -10,13 -10.746,12.843 -21.896,24.151 -31,36.999 68.531,64.137 125.925,139.405 163.999,234 8.203,-2.131 14.463,-6.204 21,-10 -35.542,-89.125 -87.477,-161.854 -150.999,-223 8.058,-11.274 18.526,-20.139 26.999,-30.999 80.8,76.128 146.348,175.175 184,297.999 18.488,60.31 31,133.567 31,210 0,75.375 -14.112,147.652 -33,208 2.451,5.882 10.926,5.741 16,9"
           inkscape:connector-curvature="0" />
      </g>
      <g
         transform="matrix(0.40661776,0,0,0.40661776,1332.7461,1058.2437)"
         id="g3454">
        <path
           id="path3456"
           style="fill:#231f20;fill-opacity:1;fill-rule:evenodd;stroke:none"
           d="m 0,0 2,0 c 30.839,-86.157 28.76,-202.676 7,-288 -22.409,-87.875 -65,-158.838 -114.999,-216 -97.899,-111.925 -256.891,-201.651 -476,-171.999 -0.224,7.89 2.04,13.293 2,20.999 210.756,-27.349 361.04,57.34 457,164 48.254,53.636 88.071,122.953 109.999,206 21.59,81.761 23.443,194.016 -5,277 3.895,4.773 12.347,4.987 18,8"
           inkscape:connector-curvature="0" />
      </g>
      <g
         transform="matrix(0.40661776,0,0,0.40661776,978.98903,994.4049)"
         id="g3466">
        <path
           id="path3468"
           style="fill:#231f20;fill-opacity:1;fill-rule:evenodd;stroke:none"
           d="m 0,0 c 1.159,-119.84 43.463,-198.539 102,-261 -3.247,-7.087 -10.253,-10.414 -15,-16 -33.731,30.812 -58.853,70.423 -78,115 -19.066,44.388 -33.851,95.959 -33,159 2.638,6.362 16.546,1.454 24,3"
           inkscape:connector-curvature="0" />
      </g>
      <g
         transform="matrix(0.40661776,0,0,0.40661776,845.21182,992.77848)"
         id="g3470">
        <path
           id="path3472"
           style="fill:#231f20;fill-opacity:1;fill-rule:evenodd;stroke:none"
           d="m 0,0 c 0.555,-76.776 13.638,-147.886 33,-209 -3.634,-5.699 -11.061,-7.605 -18,-10 -19.611,64.056 -36.289,136.377 -34,219 L 0,0 z"
           inkscape:connector-curvature="0" />
      </g>
      <g
         transform="matrix(0.40661776,0,0,0.40661776,884.24712,992.77848)"
         id="g3474">
        <path
           id="path3476"
           style="fill:#231f20;fill-opacity:1;fill-rule:evenodd;stroke:none"
           d="m 0,0 47,0 c 3.108,-87.338 20.706,-162.348 50,-226 28.637,-62.225 67.331,-117.573 113,-163 45.255,-45.014 99.837,-83.196 164,-111.999 64.014,-28.736 137.228,-49.998 225,-50 174.149,-0.005 303.747,70.748 392,158.999 92.354,92.354 160.235,209.475 166.999,384 l 49,0 c -4.012,-145.649 -51.063,-256.474 -117,-346 -65.487,-88.914 -152.822,-158.34 -259.999,-201.999 -54.347,-22.14 -118.64,-38.277 -186,-43 -149.911,-10.512 -276.024,35.484 -366,94 -23.709,15.419 -46.01,31.175 -67,48.999 -20.918,17.764 -39.217,37.238 -59,56 -2.872,-3.794 -6.465,-6.867 -11,-9 -1.798,-4.638 3.497,-8.341 6,-11 91.626,-97.31 219.507,-176.386 389,-194.999 198.524,-21.803 350.858,51.703 459,134.999 8.107,-12.226 18.411,-22.255 27,-33.999 -13.747,-14.42 -30.812,-25.648 -48,-37 -113.98,-75.274 -278.467,-134.365 -471,-105 -193.788,29.556 -329.138,128.633 -428,250.999 13.699,15.968 31.904,27.43 47,42 -68.049,93.285 -119.374,203.291 -124,360 -0.043,1.71 0.743,2.59 2,3"
           inkscape:connector-curvature="0" />
      </g>
      <g
         transform="matrix(0.40661776,0,0,0.40661776,1514.0976,988.7124)"
         id="g3478">
        <path
           id="path3480"
           style="fill:#231f20;fill-opacity:1;fill-rule:evenodd;stroke:none"
           d="m 0,0 37,0 c -5.741,-233.069 -79.044,-409.753 -180,-551.999 -101.554,-143.09 -230.547,-253.93 -399.999,-330 -112.089,-50.318 -241.057,-85.73 -398,-87 -2.28,10.72 -0.373,25.627 -1,38 147.985,1.295 274.758,33.724 383,83 107.782,49.067 201.02,113.021 277.999,190 77.503,77.501 142.755,168.156 193,274.999 50.132,106.603 83.452,231.722 87,380 -0.086,1.419 -0.165,2.832 1,3"
           inkscape:connector-curvature="0" />
      </g>
      <g
         transform="matrix(0.40661776,0,0,0.40661776,994.03389,987.49264)"
         id="g3482">
        <path
           id="path3484"
           style="fill:#231f20;fill-opacity:1;fill-rule:evenodd;stroke:none"
           d="m 0,0 22,0 c 4.157,-90.147 41.68,-154.807 88,-204 46.427,-49.308 112.671,-83.861 197,-94 l 0,-22 c -94.128,7.108 -161.684,48.684 -213,100 -51.094,51.094 -89.219,121.949 -95,217 -0.086,1.419 -0.166,2.832 1,3"
           inkscape:connector-curvature="0" />
      </g>
      <g
         transform="matrix(0.40661776,0,0,0.40661776,1473.4358,970.82168)"
         id="g3490">
        <path
           id="path3492"
           style="fill:#231f20;fill-opacity:1;fill-rule:evenodd;stroke:none"
           d="m 0,0 c -20.423,-264.88 -138.973,-448.15 -293,-585.999 -5.667,4.332 -9.524,10.475 -14,16 7.793,10.244 18.415,17.153 28,26 26.814,24.744 53.327,53.696 77,83 94.317,116.749 163.416,263.177 180,458.999 5.234,2.767 16.767,-0.767 22,2"
           inkscape:connector-curvature="0" />
      </g>
      <g
         transform="matrix(0.40661776,0,0,0.40661776,1285.5788,957.40327)"
         id="g3494">
        <path
           id="path3496"
           style="fill:#231f20;fill-opacity:1;fill-rule:evenodd;stroke:none"
           d="m 0,0 c -15.079,-69.414 -46.903,-129.302 -90,-176 -42.493,-46.043 -93.894,-85.007 -157,-108 -66.664,-24.288 -155.449,-30.965 -230,-13 -70.244,16.928 -127.538,51.501 -173,92 4.638,6.362 8.981,13.02 16,17 59.601,-54.328 143.152,-99.171 255,-98 112.751,1.181 191.164,48.581 251,102 -8.824,9.51 -17.973,18.694 -27,28 4.469,5.53 12.113,7.886 15,15 9.537,-8.462 17.942,-18.057 28,-26 41.949,45.718 74.451,100.881 90,173 7.986,-1.347 14.257,-4.41 22,-6"
           inkscape:connector-curvature="0" />
      </g>
      <g
         transform="matrix(0.40661776,0,0,0.40661776,1243.2905,843.14369)"
         id="g3498">
        <path
           id="path3500"
           style="fill:#231f20;fill-opacity:1;fill-rule:evenodd;stroke:none"
           d="m 0,0 c -80.622,-61.354 -205.032,-111.337 -354,-88 1.755,7.579 2.132,16.535 5,23 123.989,-19.339 226.543,14.843 301,61 11.576,7.177 24.928,16.508 35,22 C -7.807,12.861 -3.529,6.805 0,0"
           inkscape:connector-curvature="0" />
      </g>
      <g
         transform="matrix(0.40661776,0,0,0.40661776,1231.0921,680.49698)"
         id="g3502">
        <path
           id="path3504"
           style="fill:#231f20;fill-opacity:1;fill-rule:evenodd;stroke:none"
           d="m 0,0 2,0 c 12.471,-31.195 26.048,-61.286 38,-93 -114.725,-40.756 -282.981,-61.354 -432,-36 -0.664,5.213 1.232,15.943 3,22 132.756,-23.539 287.392,-7.412 396,26 -10.403,23.93 -20.075,48.592 -31,72 7.129,3.87 17.225,4.775 24,9"
           inkscape:connector-curvature="0" />
      </g>
    </g>
  </g>
</svg>
