<?xml version="1.0" encoding="UTF-8" standalone="no"?>
<svg
   xmlns:dc="http://purl.org/dc/elements/1.1/"
   xmlns:cc="http://creativecommons.org/ns#"
   xmlns:rdf="http://www.w3.org/1999/02/22-rdf-syntax-ns#"
   xmlns:svg="http://www.w3.org/2000/svg"
   xmlns="http://www.w3.org/2000/svg"
   xmlns:sodipodi="http://sodipodi.sourceforge.net/DTD/sodipodi-0.dtd"
   xmlns:inkscape="http://www.inkscape.org/namespaces/inkscape"
   id="pendulum"
   version="1.1"
   height="512px"
   width="512px"
   inkscape:version="0.48.4 r9939"
   sodipodi:docname="pendulumink.svg">
  <metadata
     id="metadata51">
    <rdf:RDF>
      <cc:Work
         rdf:about="">
        <dc:format>image/svg+xml</dc:format>
        <dc:type
           rdf:resource="http://purl.org/dc/dcmitype/StillImage" />
      </cc:Work>
    </rdf:RDF>
  </metadata>
  <defs
     id="defs49" />
  <sodipodi:namedview
     pagecolor="#ffffff"
     bordercolor="#666666"
     borderopacity="1"
     objecttolerance="10"
     gridtolerance="10"
     guidetolerance="10"
     inkscape:pageopacity="0"
     inkscape:pageshadow="2"
     inkscape:window-width="2560"
     inkscape:window-height="1378"
     id="namedview47"
     showgrid="false"
     showguides="true"
     inkscape:guide-bbox="true"
     inkscape:zoom="2.6074563"
     inkscape:cx="268.26712"
     inkscape:cy="211.81471"
     inkscape:window-x="-8"
     inkscape:window-y="-8"
     inkscape:window-maximized="1"
     inkscape:current-layer="pendulum">
    <inkscape:grid
       type="xygrid"
       id="grid3028"
       empspacing="5"
       visible="true"
       enabled="true"
       snapvisiblegridlinesonly="true" />
    <sodipodi:guide
       orientation="0,1"
       position="-91.661017,256"
       id="guide3030" />
    <sodipodi:guide
       orientation="1,0"
       position="256,237.01695"
       id="guide3032" />
  </sodipodi:namedview>
  <g id="Circle1">
    <path
       style="fill:#000000;fill-opacity:1;stroke:none;display:inline"
       d="m 249.13226,287.55456 c -12.63475,-3.06473 -22.568,-14.17321 -24.43911,-27.33054 -0.86104,-6.05471 0.2565,-12.89099 3.0527,-18.6741 1.94057,-4.01351 9.2844,-11.58285 13.44555,-13.8584 l 2.64486,-1.44637 0,2.52611 c 0,2.26008 -0.28546,2.72252 -2.71076,4.39117 -9.15589,6.29941 -13.79755,16.9653 -11.98444,27.53856 3.88344,22.64648 31.09454,31.71253 47.13858,15.70536 12.72671,-12.69749 11.31591,-31.94585 -3.13398,-42.75813 -2.83075,-2.11815 -3.29855,-2.77044 -3.29855,-4.59948 0,-1.1722 0.21411,-2.12862 0.4758,-2.12534 1.46622,0.0183 7.27952,4.13726 10.19393,7.22272 5.99043,6.34206 8.70361,14.44454 8.25693,24.65798 -0.24412,5.58224 -0.47682,6.49185 -2.92476,11.43189 -4.23844,8.5536 -11.93776,14.94314 -20.78216,17.24681 -4.41195,1.14916 -11.36378,1.18046 -15.93459,0.0718 z"
       id="Circle1-1"
       inkscape:connector-curvature="0" />
    <path
       style="fill:#000000;fill-opacity:1;stroke:none;display:inline"
       d="m 261.6013,216.03152 0,10.12533 0,10.09818 2.82315,1.08583 c 7.19426,2.74759 12.6292,10.8401 12.64987,18.83909 0.009,3.46233 -0.33484,4.90548 -2.03592,8.36086 -2.24615,4.5626 -5.46584,7.75084 -10.17962,10.07104 -4.23371,2.08382 -12.45328,2.07185 -16.72173,-0.0271 -3.9902,-1.96218 -7.67467,-5.75622 -9.77244,-10.04389 -4.53892,-9.27723 -0.12624,-21.67739 9.44669,-26.57561 l 3.01317,-1.5473 0,-9.82673 c 0,-11.19012 0.37592,-10.62422 -5.75488,-8.82234 -11.9938,3.52506 -21.80373,12.97094 -26.46702,25.48978 -2.12194,5.69647 -2.64494,16.19869 -1.14012,22.61233 3.21064,13.6839 15.46391,26.02725 29.61592,29.83308 4.54905,1.22336 14.55784,1.25583 19.30056,0.0543 2.07964,-0.52686 6.19365,-2.14998 9.12094,-3.58322 9.65816,-4.72879 17.11849,-13.73 20.35925,-24.51253 1.88382,-6.26793 1.61638,-17.9878 -0.57006,-24.24108 C 290.3805,229.38311 278.7506,219.452 263.66437,216.43876 l -2.06307,-0.40719 z m -15.28301,5.80917 c 0.45356,0 0.67864,1.98887 0.67864,5.70059 l 0,5.70059 -2.36167,1.2487 c -9.82886,5.15152 -15.1183,18.20722 -11.83551,29.26302 6.54383,22.03839 37.82316,23.87134 47.31489,2.76886 2.12126,-4.71609 2.38981,-13.93526 0.54291,-18.83909 -1.88681,-5.00979 -5.51023,-9.34598 -10.45108,-12.5413 l -4.15329,-2.68742 0,-5.32055 c 0,-4.09466 0.19075,-5.2934 0.86867,-5.2934 0.48298,0 3.27017,1.20325 6.18921,2.66027 21.67017,10.81655 26.18676,39.91023 8.84948,56.97874 -4.52668,4.4565 -9.7566,7.56437 -15.28301,9.0938 -7.51953,2.08103 -14.63068,1.75485 -22.23229,-1.00439 -14.99262,-5.44203 -24.27276,-19.67258 -23.26383,-35.69654 0.60066,-9.53989 3.65298,-16.25428 10.36964,-22.88379 3.51658,-3.47095 12.68064,-9.14809 14.76724,-9.14809 z"
       id="Cicle1-2"
       inkscape:connector-curvature="0" />
  </g>
  <path
     style="fill:#000000;fill-opacity:1;stroke:none;display:inline"
     d="m 243.52933,301.06006 c -12.91154,-3.67811 -23.00358,-12.03023 -28.49105,-23.57907 -2.33876,-4.92213 -4.61262,-11.65471 -4.10702,-12.16031 0.17118,-0.17117 0.97087,-0.38875 1.7771,-0.48351 1.29127,-0.15176 1.59274,0.28109 2.53105,3.63419 3.88994,13.90083 14.32717,24.32498 29.04755,29.01118 5.71678,1.81992 6.51849,2.25038 6.52286,3.50237 0.006,1.78507 -1.23315,1.79787 -7.28049,0.0751 z"
     id="Cicle2-1"
     inkscape:connector-curvature="0" />
  <path
     style="fill:#000000;fill-opacity:1;stroke:none;display:inline"
     d="m 212.90874,244.63146 c -0.78508,-0.29922 -1.42742,-0.68946 -1.42742,-0.8672 0,-0.17773 0.7166,-2.22701 1.59246,-4.55394 5.4262,-14.41611 15.91141,-24.00063 30.74973,-28.10831 6.18238,-1.71147 6.99127,-1.68888 6.99127,0.19526 0,1.33525 -0.49279,1.63081 -4.28227,2.56835 -7.73775,1.91439 -14.44935,5.72393 -20.23067,11.4831 -4.97668,4.95761 -7.36103,8.8213 -11.39771,18.46929 -0.45696,1.09218 -0.84692,1.25116 -1.99539,0.81345 z"
     id="Cicle2-2"
     inkscape:connector-curvature="0" />
  <path
     style="fill:#000000;fill-opacity:1;stroke:none;display:inline"
     d="m 256.87795,185.87269 c -1.82186,0.0358 -3.63188,0.15502 -5.45628,0.35289 -14.40267,1.56211 -27.12426,6.34164 -37.18955,13.95287 -18.47521,13.9707 -29.59486,37.81436 -27.8243,59.72045 1.5932,19.712 8.35096,34.22193 22.04227,47.34204 10.55653,10.1161 21.6016,15.79492 35.6694,18.35046 7.42075,1.34805 6.70498,2.34098 6.70498,-9.06665 l 0,-10.01675 -5.89061,-1.38443 c -3.24367,-0.77001 -8.25763,-2.60795 -11.2383,-4.09899 -4.43631,-2.2192 -6.53489,-3.82727 -11.75407,-9.06665 -11.72163,-11.767 -15.96058,-22.32299 -15.3373,-38.08536 0.47405,-11.98831 3.30143,-19.74172 10.61395,-28.96442 13.57968,-17.12698 35.86573,-23.70071 56.54441,-16.66744 7.09656,2.4137 12.91018,6.19591 18.92053,12.29699 10.2574,10.41212 14.56262,20.90568 14.57722,35.56081 0.0116,11.76173 -3.24827,21.46336 -10.3425,30.78318 -6.90474,9.07091 -16.81433,15.48981 -28.01432,18.16045 -3.14034,0.74881 -6.0788,1.46445 -6.51496,1.57444 -0.59204,0.1493 -0.78722,2.69754 -0.78722,10.09819 l 0,9.93531 3.33891,-0.46147 c 14.40521,-1.89737 26.99902,-7.21913 36.9181,-15.6359 18.04809,-15.31458 26.91937,-36.58046 24.97401,-59.80189 -1.49842,-17.88603 -8.25506,-32.27174 -20.87502,-44.43745 -14.11011,-13.60219 -31.46804,-20.78625 -49.07935,-20.44068 z m 0.38004,4.9948 c 3.51382,-0.0447 6.83354,0.10653 9.44669,0.48862 20.94771,3.06297 39.29258,16.50314 48.97077,35.88657 4.85236,9.71818 6.48056,17.33887 6.40638,29.80593 -0.0484,8.12641 -0.28567,10.43546 -1.71018,15.85307 -5.93149,22.55818 -22.47713,39.61644 -44.81748,46.20191 -8.12382,2.39472 -8.68261,2.47242 -9.12095,1.33014 -0.21084,-0.54944 -0.38004,-2.94721 -0.38004,-5.3477 l 0,-4.37045 2.68743,-0.70579 c 15.09717,-3.88512 25.85961,-11.27744 34.04065,-23.37241 11.90352,-17.59817 12.18369,-42.48998 0.67864,-60.29051 -5.96377,-9.22718 -16.40249,-17.90463 -26.00554,-21.60795 -29.84639,-11.50998 -62.96108,4.00263 -73.10326,34.23068 -1.96079,5.84414 -2.01204,6.36339 -2.03592,17.12891 -0.0244,10.99433 -0.003,11.17045 2.11736,17.29179 4.79792,13.85499 14.87288,25.62355 27.25424,31.84186 1.86094,0.93462 5.8526,2.48901 8.87663,3.47464 l 5.48342,1.81876 0,4.96766 0,4.9948 -2.36167,-0.13573 c -3.02609,-0.17652 -11.00818,-2.85591 -16.34169,-5.48342 -42.35361,-20.86525 -48.62108,-79.37768 -11.72692,-109.34272 6.96906,-5.6602 17.41095,-11.03381 25.05544,-12.89419 4.37618,-1.06499 10.72963,-1.68989 16.586,-1.76447 z"
     id="Cicle3-1"
     inkscape:connector-curvature="0" />
  <path
     style="fill:#000000;fill-opacity:1;stroke:none;display:inline"
     d="m 238.76098,316.29354 c -6.35423,-1.77935 -16.30106,-7.00235 -21.2433,-11.1547 -10.35973,-8.70398 -18.28889,-20.97847 -21.63763,-33.49543 -1.35272,-5.0562 -1.87854,-19.00603 -0.94459,-25.05922 1.05998,-6.8699 4.48938,-16.35886 8.05763,-22.29498 1.7182,-2.85839 5.56234,-7.72453 8.63894,-10.93567 l 5.54318,-5.78562 1.27369,1.49397 1.2737,1.49397 -5.23085,5.56902 c -7.67105,8.16694 -12.24275,16.4931 -14.85971,27.06303 -1.62171,6.55009 -1.44201,20.50656 0.35006,27.18668 4.63769,17.28752 17.54423,32.40397 33.68559,39.45336 2.62684,1.14721 5.7267,2.26794 6.88857,2.49051 2.30142,0.44086 2.85001,1.21691 2.5343,3.58515 l -0.20591,1.54465 z"
     id="Cicle3-2"
     inkscape:connector-curvature="0" />
  <path
     style="fill:#000000;fill-opacity:1;stroke:none;display:inline"
     d="m 269.2127,315.41776 c 0,-1.68375 0.26834,-2.22553 1.11021,-2.24149 0.61063,-0.0115 3.60782,-0.97136 6.66046,-2.13284 19.221,-7.31336 32.68929,-22.73788 37.03849,-42.41822 1.53717,-6.95562 1.39056,-19.06018 -0.31594,-26.08665 -2.71895,-11.19513 -8.26238,-20.63639 -17.03697,-29.01649 -11.6219,-11.09941 -25.60904,-16.26493 -42.36491,-15.6456 -9.39314,0.34718 -15.93787,2.03681 -24.06673,6.21321 -5.5328,2.8426 -5.89829,2.94372 -6.59695,1.82497 -0.40682,-0.65139 -0.73965,-1.47085 -0.73965,-1.82101 0,-0.96946 10.44378,-6.00008 16.27739,-7.84059 6.93652,-2.18848 15.61608,-3.02434 23.60198,-2.27293 25.83661,2.43103 46.70219,19.57724 54.42551,44.724 1.61236,5.24979 1.74075,6.48655 1.7733,17.07902 0.0305,9.98644 -0.14757,12.09607 -1.42013,16.81189 -4.89143,18.12633 -18.39505,33.94928 -34.85361,40.83985 -3.67968,1.54054 -11.8675,4.20331 -12.92487,4.20331 -0.31217,0 -0.56758,-0.99919 -0.56758,-2.22043 z"
     id="Circle3-3"
     inkscape:connector-curvature="0" />
  <path
     style="fill:#000000;fill-opacity:1;stroke:none;display:inline"
     d="m 239.07819,340.45612 c -21.38245,-4.49545 -41.48899,-18.18649 -54.10315,-36.84014 -7.1474,-10.5695 -12.0607,-25.0626 -13.68868,-40.37851 l -0.2866,-2.69624 2.79449,0 2.79448,0 0,2.91379 c 0,6.78596 3.67454,20.27341 7.76175,28.48954 5.23458,10.52259 15.32362,22.553 24.86828,29.65352 5.39025,4.00996 15.21646,9.06981 21.92929,11.29215 4.99324,1.65305 14.25431,3.74768 16.65328,3.76656 1.61018,0.0127 1.74464,0.2093 1.74464,2.55138 0,2.51738 -0.0189,2.53728 -2.37905,2.493 -1.30847,-0.0246 -4.94841,-0.58482 -8.08873,-1.24505 z"
     id="Cicle4-1"
     inkscape:connector-curvature="0" />
  <path
     style="fill:#000000;fill-opacity:1;stroke:none;display:inline"
     d="m 244.47067,357.16523 c -17.89733,-1.91668 -37.65397,-10.42168 -52.19889,-22.471 l -3.66646,-3.03736 1.76323,-1.92994 1.76322,-1.92995 3.48927,2.95121 c 30.44765,25.7526 74.93685,29.57657 109.11697,9.37893 4.92626,-2.91102 8.09527,-5.21224 17.6566,-12.82159 0.88355,-0.70314 0.56424,-1.24662 -2.62684,-4.47134 l -3.63258,-3.6709 1.9557,-1.44588 1.95564,-1.4459 3.10436,2.90379 c 1.70746,1.59707 3.40139,2.90377 3.7644,2.90377 0.98467,0 8.53689,-9.7375 12.09778,-15.59836 4.66431,-7.67695 9.29519,-19.0093 11.02529,-26.98014 0.34722,-1.59957 0.45062,-1.63483 2.88765,-0.98436 2.95686,0.78924 2.97443,0.30304 -0.38237,10.5735 -5.07147,15.51664 -11.86747,26.35126 -24.2813,38.71104 -17.37455,17.29891 -34.27741,25.85351 -57.02031,28.85813 -6.44404,0.85133 -20.98229,1.1263 -26.77136,0.50635 z"
     id="Cicle5-1"
     inkscape:connector-curvature="0" />
  <path
     style="fill:#000000;fill-opacity:1;stroke:none;display:inline"
     d="m 180.07769,322.59113 c -13.36376,-14.60349 -23.00556,-38.30241 -24.22021,-59.53165 l -0.39817,-6.95914 2.95178,0 2.95178,0 0,5.01225 c 0,6.5778 1.98744,17.997 4.49434,25.82302 3.68888,11.51594 8.80094,20.73961 17.23632,31.09939 l 4.19733,5.15488 -1.77577,1.70129 -1.77576,1.70129 z"
     id="Cicle5-2"
     inkscape:connector-curvature="0" />
  <path
     style="fill:#000000;fill-opacity:1;stroke:none;display:inline"
     d="m 156.09575,248.01161 c 2.29616,-24.1332 11.67646,-44.71942 27.93868,-61.31493 17.35937,-17.71516 39.02272,-28.36223 62.18088,-30.56057 l 4.59947,-0.43661 0,2.84068 0,2.84069 -5.55109,0.7683 c -22.16211,3.06738 -40.99294,12.42859 -56.49151,28.08316 -14.45543,14.60094 -22.96791,31.52895 -26.34338,52.38678 l -1.36035,8.40595 -2.62971,0 -2.62972,0 z"
     id="Cicle5-3"
     inkscape:connector-curvature="0" />
  <path
     style="fill:#000000;fill-opacity:1;stroke:none;display:inline"
     d="m 334.26609,343.91489 -3.62463,-4.10303 5.10776,-5.396 c 17.51938,-18.508 27.43827,-38.39602 30.89074,-61.93808 1.45698,-9.9353 0.97553,-28.60961 -0.97015,-37.63019 -2.95471,-13.69825 -8.94462,-27.76904 -17.09084,-40.14764 -4.45641,-6.77172 -3.68661,-6.71231 -10.6548,-0.82233 -2.5096,2.12131 -4.8297,3.85693 -5.15579,3.85693 -0.32602,0 -3.09573,-2.72673 -6.15493,-6.0594 -15.45481,-16.83652 -38.41072,-27.87854 -62.12596,-29.88321 l -4.79095,-0.40498 0,-5.33827 0,-5.33827 2.73696,0.24846 c 0.7478,0.0678 1.80979,0.17618 3.05332,0.305 1.23071,0.12749 2.59774,0.38018 3.72588,0.48331 2.26802,0.20732 7.40674,1.10192 11.41939,1.98799 18.88022,4.16911 34.27965,12.53071 48.59216,26.38457 l 3.86616,3.74228 2.03792,-1.7148 2.03792,-1.71481 -1.78042,-1.87172 c -6.67907,-7.02153 -19.13046,-15.97224 -29.34651,-21.09577 -35.48216,-17.79499 -76.06386,-15.31301 -109.8519,6.71854 l -7.08645,4.62074 -3.6695,-4.09135 -3.66952,-4.09133 1.26495,-1.35773 c 1.90958,-2.0496 13.05986,-8.85391 20.77794,-12.67945 8.76048,-4.3422 21.75948,-8.67304 31.46689,-10.48374 10.21364,-1.90513 30.06525,-2.05375 40.60228,-0.30398 39.25953,6.5194 73.99841,32.05392 90.73784,66.696 16.53617,34.22134 16.50705,73.59633 -0.0799,108.16704 -6.01961,12.546 -17.58047,28.23605 -25.80022,35.01518 l -2.84095,2.34304 z"
     id="Cicle5-4"
     inkscape:connector-curvature="0" />
  <path
     style="fill:#000000;fill-opacity:1;stroke:none;display:inline"
     d="m 245.45766,374.629 c -3.81873,-0.30978 -7.03492,-0.65502 -7.1471,-0.76719 -0.11217,-0.11218 0.0287,-1.31762 0.313,-2.67876 0.4687,-2.24383 0.6833,-2.45491 2.29946,-2.26174 5.92682,0.7084 17.31043,1.00516 23.75945,0.61939 18.6358,-1.11473 37.18952,-7.36982 54.45939,-18.36012 3.21938,-2.0488 6.03204,-3.72508 6.25034,-3.72508 0.6143,0 2.77593,2.76619 2.79959,3.58263 0.0336,1.1513 -11.33362,8.20589 -19.82527,12.30395 -13.38213,6.45818 -26.5061,10.02654 -41.8826,11.38772 -8.04638,0.71229 -11.18867,0.69722 -21.02626,-0.10081 z"
     id="Cicle5-5"
     inkscape:connector-curvature="0" />
  <path
     style="fill:#000000;fill-opacity:1;stroke:none;display:inline"
     d="m 157.58108,321.74953 c -4.89483,-7.55603 -11.45323,-21.03222 -13.89463,-28.55071 -9.22703,-28.4153 -7.25039,-60.61954 5.33377,-86.89972 5.51499,-11.51724 14.0323,-23.76943 23.14805,-33.2986 l 4.54402,-4.7501 1.54498,1.79614 1.54497,1.79613 -4.03209,4.27423 c -13.11285,13.90033 -22.61067,29.296 -27.62151,44.77365 -3.98961,12.32327 -4.86836,18.76309 -4.84785,35.527 0.0204,16.71873 0.67981,21.44289 4.75176,34.04525 2.38958,7.39555 9.52203,21.95841 14.24183,29.07862 l 3.57455,5.39249 -1.654,1.42743 c -0.9097,0.78509 -1.89421,1.42742 -2.1878,1.42742 -0.2936,0 -2.29431,-2.71765 -4.44605,-6.03923 z"
     id="Cicle5-6"
     inkscape:connector-curvature="0" />
  <path
     style="fill:#000000;fill-opacity:1;stroke:none;display:inline"
     d="m 245.49041,389.93856 c -4.14964,-0.30011 -7.95054,-0.70134 -8.44646,-0.89163 -0.58737,-0.2254 -0.83225,-1.06619 -0.70253,-2.4122 0.17117,-1.77622 0.42172,-2.04541 1.78515,-1.91807 8.143,0.76053 25.62981,0.87173 31.79195,0.20219 31.96541,-3.47316 59.00115,-16.72118 81.15045,-39.76519 18.84619,-19.60752 31.00048,-44.83677 34.58103,-71.7816 1.29522,-9.74679 1.31064,-28.73142 0.0305,-37.71411 -0.84808,-5.95179 -2.84076,-15.05456 -3.89966,-17.81397 -0.3946,-1.02828 3.42341,-2.72766 4.2203,-1.87844 0.69918,0.74515 2.937,9.3534 4.08395,15.71 1.3964,7.73912 1.93857,28.03181 0.99342,37.18123 -1.71925,16.64216 -5.88605,31.33105 -13.02806,45.92658 -17.32513,35.40575 -49.67405,61.94142 -87.06666,71.42028 -13.41694,3.40115 -30.60111,4.81192 -45.49352,3.73493 z"
     id="Cicle6-1"
     inkscape:connector-curvature="0" />
  <path
     style="fill:#000000;fill-opacity:1;stroke:none;display:inline"
     d="m 105.27547,245.82639 c 2.30464,-23.96239 6.53238,-39.8318 15.43176,-57.9252 7.44493,-15.13634 16.29891,-27.20699 29.65335,-40.42645 8.92416,-8.83395 13.8219,-12.8397 23.93731,-19.57781 8.25749,-5.50051 18.315,-10.67402 27.66727,-14.23186 11.78914,-4.4849 30.08991,-8.48613 43.45713,-9.50136 2.79141,-0.21202 5.71763,-0.51936 6.50271,-0.68301 1.30916,-0.27287 1.42743,-0.0662 1.42743,2.49488 l 0,2.79239 -4.91668,0.42514 c -39.41936,3.40849 -69.42395,16.78009 -94.68581,42.19689 -26.07938,26.23934 -40.72352,58.4331 -43.30143,95.19419 -0.14911,2.12638 -0.26883,2.22864 -2.82624,2.41426 l -2.67052,0.19381 z"
     id="Cicle6-2"
     inkscape:connector-curvature="0" />
  <path
     style="fill:#000000;fill-opacity:1;stroke:none;display:inline"
     d="m 403.06097,247.05999 c -0.0158,-5.09115 -1.42292,-15.54572 -3.18056,-23.6318 -1.35516,-6.23467 -5.81,-20.69341 -6.92662,-22.48109 -0.56551,-0.90547 -3.36409,-0.0287 -12.87023,4.03239 l -2.37149,1.01311 -3.74404,-7.45969 c -12.9468,-25.79518 -33.99877,-47.13872 -58.88627,-59.70188 -11.06386,-5.58503 -27.90975,-10.7733 -39.89518,-12.2871 l -5.94835,-0.75128 0.31402,-2.2523 c 0.38276,-2.74556 2.5912,-23.39462 3.15846,-29.531958 0.63658,-6.887397 0.62166,-6.862536 3.8956,-6.49352 1.55081,0.17481 2.95094,0.449115 3.11141,0.609601 0.16048,0.160467 -0.56015,7.67132 -1.60139,16.690777 -1.04125,9.01945 -1.829,16.43881 -1.75055,16.48743 0.0784,0.0487 4.13943,1.02916 9.02436,2.17893 15.5968,3.67098 30.01569,9.36054 41.87282,16.52259 20.44935,12.35201 39.12399,32.76156 50.35592,55.03411 1.09975,2.18079 2.37446,3.96507 2.83264,3.96507 0.94972,0 8.75169,-3.0654 9.42614,-3.70353 0.80075,-0.75767 -5.3229,-12.22446 -11.34859,-21.25048 -3.24908,-4.8669 -5.90744,-9.03253 -5.90744,-9.25697 0,-0.73136 3.79167,-2.66887 4.43947,-2.26852 1.15748,0.71537 11.26898,16.41679 14.50416,22.52246 8.40879,15.86981 14.04262,34.81123 16.2614,54.67242 1.35148,12.09735 1.48433,11.3063 -1.89847,11.3063 l -2.85485,0 -0.0127,-3.96507 z"
     id="Cicle6-3"
     inkscape:connector-curvature="0" />
  <path
     style="fill:#000000;fill-opacity:1;stroke:none;display:inline"
     d="m 247.32553,426.96306 c -46.45036,-2.92105 -87.90812,-22.89865 -118.42443,-57.06622 -3.60497,-4.03631 -6.81435,-7.79561 -7.13194,-8.35401 -0.44935,-0.79006 0.1807,-1.65591 2.84041,-3.90345 1.87982,-1.58848 4.55045,-3.92347 5.93474,-5.18884 l 2.51688,-2.30068 -5.35729,-8.16052 C 111.83664,317.8195 103.47631,292.58366 101.40418,262.60305 l -0.40559,-5.8683 5.98761,0 5.9876,0 0.43766,6.18551 c 2.13447,30.16748 11.44925,55.7366 28.79593,79.04499 18.55628,24.9337 47.27382,44.00213 78.92153,52.40385 13.25664,3.51933 18.37128,4.11212 35.39556,4.10228 13.02723,-0.008 16.82666,-0.23076 23.4732,-1.37918 30.22241,-5.22198 54.34169,-17.32872 75.41156,-37.85299 21.27027,-20.71955 33.77564,-41.90857 40.31154,-68.30358 2.29034,-9.24953 4.1805,-21.54913 4.1805,-27.20296 0,-5.08507 0.0121,-5.09468 6.50741,-5.09468 l 5.73716,0 -0.43189,7.1114 c -1.25088,20.59586 -6.22834,39.45758 -15.28341,57.9157 -20.13664,41.04701 -56.7693,70.8805 -100.89866,82.17142 -14.81921,3.79164 -22.41447,4.69982 -39.32461,4.7021 -15.97037,0 -22.82011,-0.76737 -36.34988,-4.08385 -25.12491,-6.15878 -50.44164,-19.86931 -68.88686,-37.30642 -3.18183,-3.00793 -6.82994,-6.44 -8.10691,-7.62682 l -2.32176,-2.15785 -1.62337,1.18304 c -0.89286,0.65067 -1.63235,1.60082 -1.64331,2.11144 -0.0266,1.23928 11.11422,12.00619 18.91961,18.28462 22.85697,18.38546 47.96516,29.25664 78.12531,33.82612 10.71052,1.62273 32.69067,1.96848 41.87111,0.6586 20.23234,-2.88668 37.40044,-8.33502 54.55929,-17.31452 7.18895,-3.76207 19.53052,-11.53362 24.35801,-15.33836 l 2.47084,-1.94736 2.1537,2.50505 c 1.1845,1.37778 2.71369,3.26329 3.39816,4.19 l 1.24452,1.68497 -3.01414,2.51499 c -6.85361,5.71858 -20.88424,14.08257 -33.09272,19.72734 -24.95213,11.53699 -54.40678,17.18225 -80.94335,15.51346 z"
     id="Cicle6-4"
     inkscape:connector-curvature="0" />
  <path
     style="fill:#000000;fill-opacity:1;stroke:none;display:inline"
     d="m 112.33111,343.17322 c -11.68238,-19.45875 -18.928997,-38.95278 -22.698847,-61.06203 -1.929612,-11.31663 -2.398845,-33.28906 -0.961921,-45.04317 2.558876,-20.9317 7.923432,-39.14815 16.922808,-57.46468 15.57611,-31.70233 40.85174,-57.02737 74.93914,-75.08566 l 7.38959,-3.91475 -2.70339,-6.46932 c -1.48687,-3.558123 -4.08924,-9.703162 -5.78305,-13.655614 -2.55407,-5.959892 -2.92444,-7.286546 -2.17017,-7.773665 1.22204,-0.789214 5.61414,-2.121245 5.91854,-1.794967 0.51288,0.549749 13.07822,29.253746 13.38697,30.580926 0.29476,1.26703 -0.80342,1.95081 -11.57282,7.20594 -18.29359,8.92669 -31.21096,18.09453 -44.71014,31.73213 -22.44619,22.67635 -37.60106,51.22773 -43.887341,82.68262 -2.296966,11.4934 -3.036622,19.69028 -3.005446,33.30657 0.07114,31.0632 8.184617,59.51427 24.488217,85.87101 1.93146,3.12242 3.51174,5.95773 3.51174,6.30069 0,0.66258 -2.75833,2.67272 -3.66754,2.67272 -0.29707,0 -2.72543,-3.63993 -5.39634,-8.08875 z"
     id="Cicle7-1"
     inkscape:connector-curvature="0" />
  <path
     style="fill:#000000;fill-opacity:1;stroke:none;display:inline"
     d="m 419.6491,186.15656 c -5.86095,-13.80921 -15.94484,-30.54875 -25.89202,-42.98133 -2.37295,-2.96587 -7.59954,-8.67743 -11.61473,-12.69236 -21.91769,-21.91649 -49.25273,-37.828686 -78.98135,-45.976388 -27.37938,-7.503851 -58.4172,-7.95724 -87.2388,-1.274344 -4.01265,0.930415 -7.66834,1.737305 -8.12375,1.793082 -0.92037,0.112735 -4.77486,-8.268629 -4.33263,-9.421064 0.15287,-0.398368 3.94592,-1.626429 8.42899,-2.729021 43.78393,-10.768435 87.02814,-5.995334 128.05466,14.134116 11.43677,5.611368 20.31884,10.981162 28.97023,17.514379 25.2736,19.08562 45.12488,43.15684 57.43035,69.6389 3.44459,7.41295 5.90897,13.39756 5.89838,14.32385 -0.007,0.6289 -7.85025,4.17289 -9.23485,4.17289 -0.33253,0 -1.84653,-2.92622 -3.36448,-6.50271 z"
     id="Cicle7-2"
     inkscape:connector-curvature="0" />
  <path
     style="fill:#000000;fill-opacity:1;stroke:none;display:inline"
     d="m 415.06471,307.08669 -2.28292,-0.92691 1.84202,-6.156 c 1.01302,-3.38579 2.58972,-10.29553 3.50365,-15.35495 1.53641,-8.5057 1.66527,-10.60937 1.70974,-27.91408 0.0394,-15.25879 -0.16704,-20.06249 -1.11669,-26.01084 -4.22981,-26.49526 -15.49225,-53.3478 -30.64718,-73.07087 l -2.76844,-3.6029 1.98926,-1.41646 c 1.47919,-1.05326 2.25247,-1.25307 3.01593,-0.77927 0.56468,0.35044 3.50815,4.32207 6.54102,8.82582 21.19738,31.47741 31.05421,68.01008 28.5406,105.78051 -1.01343,15.22875 -4.15453,32.48251 -7.2112,39.6106 -0.83102,1.93781 -0.83812,1.94013 -3.11579,1.01535 z"
     id="Cicle7-3"
     inkscape:connector-curvature="0" />
  <path
     style="fill:#000000;fill-opacity:1;stroke:none;display:inline"
     d="M 243.28226,456.4862 C 200.65304,453.77902 161.40792,438.26115 128.69071,411.17572 106.51396,392.81633 90.618219,372.97338 76.969726,346.61143 68.455101,330.16552 62.425177,312.86014 58.994782,295.02493 c -1.37423,-7.14491 -1.956398,-11.24265 -3.254204,-22.90571 l -0.300027,-2.69625 2.368214,0 2.368196,0 1.113919,9.04035 c 5.207623,42.26403 22.014035,78.57513 51.29464,110.82469 33.54713,36.94865 81.87483,59.75739 132.67817,62.61878 l 7.45432,0.41986 0,-5.80638 c 0,-5.10218 -0.13464,-5.80789 -1.11022,-5.81894 -2.68782,-0.0306 -19.66787,-1.93322 -25.21269,-2.82547 -19.74723,-3.17763 -40.70441,-10.40689 -58.26611,-20.09911 -36.22264,-19.99114 -63.85057,-50.04574 -80.381855,-87.44212 l -3.004942,-6.79766 1.875639,-1.10797 c 1.031614,-0.60939 1.965896,-1.00878 2.076199,-0.88755 0.110302,0.12123 1.132047,2.47055 2.270523,5.22072 10.876406,26.27337 31.684416,53.18596 55.489656,71.769 23.08785,18.02304 53.10343,30.61819 84.69384,35.53924 8.86085,1.38033 34.13713,1.95937 43.90317,1.00574 26.28357,-2.5665 51.23698,-10.77182 73.46279,-24.15648 10.35542,-6.23615 27.36893,-18.86513 27.78554,-20.62492 0.10373,-0.43825 -2.08835,-3.4567 -4.87132,-6.70768 l -5.05993,-5.91086 7.61191,-7.92199 c 12.7136,-13.23142 22.41742,-27.04445 30.14973,-42.91707 2.20972,-4.53604 4.10167,-8.49855 4.20432,-8.80558 0.10258,-0.30703 1.24255,-0.0165 2.53325,0.64571 l 2.34675,1.20393 -3.37227,7.32842 c -7.4851,16.26609 -16.53718,29.64256 -29.68522,43.86659 -4.03784,4.36828 -5.55713,6.43671 -5.19379,7.07108 0.28244,0.49317 1.92004,2.39554 3.6391,4.22749 l 3.12569,3.33083 5.79045,-5.96104 c 23.29842,-23.98462 39.73024,-55.69009 46.28526,-89.30845 5.4595,-27.99975 4.54875,-54.52522 -2.83428,-82.54633 -1.81525,-6.88942 -1.85959,-7.33602 -0.80507,-8.10708 2.02383,-1.47988 2.9469,-0.59651 4.47497,4.28247 5.44658,17.39091 8.02135,41.90234 6.61541,62.97874 -0.96339,14.44349 -2.04398,21.76687 -4.93791,33.46517 -11.54755,46.67972 -42.88034,88.74074 -84.63053,113.60778 -24.2803,14.46171 -51.25798,23.25096 -77.83016,25.35679 -4.82178,0.38212 -10.26567,0.83802 -12.09754,1.01316 l -3.33066,0.31834 0,8.2017 0,8.20171 -3.33065,-0.0918 c -1.83187,-0.0506 -7.14853,-0.33427 -11.8148,-0.63059 z"
     id="Cicle7-4"
     inkscape:connector-curvature="0" />
  <path
     style="fill:#000000;fill-opacity:1;stroke:none;display:inline"
     d="m 80.461249,311.72065 c -0.139611,-0.40908 -0.962451,-3.31313 -1.828532,-6.45347 -3.853381,-13.97201 -5.772401,-25.76931 -6.477632,-39.82162 l -0.437154,-8.71081 2.218596,0 2.218595,0 0.412223,8.40595 c 0.66013,13.46147 3.736589,31.47992 7.152955,41.89408 0.745989,2.27401 0.816872,3.25238 0.282289,3.89651 -0.987737,1.19016 -3.233695,1.69077 -3.54134,0.78936 z"
     id="Cicle7-5"
     inkscape:connector-curvature="0" />
  <path
     style="fill:#000000;fill-opacity:1;stroke:none;display:inline"
     d="m 341.17185,472.34461 c -0.54928,-1.06223 -0.84789,-2.08214 -0.66359,-2.26643 0.18429,-0.18431 5.12997,-2.53193 10.99034,-5.21697 5.86043,-2.68504 14.08106,-6.82757 18.26817,-9.20566 9.17034,-5.20825 26.44656,-16.80661 26.18829,-17.58139 -0.52199,-1.566 -15.97186,-22.10228 -16.62803,-22.10228 -0.42201,0 -1.88928,0.95053 -3.26056,2.11235 -6.15885,5.21798 -20.66828,13.98117 -32.22514,19.46277 -20.89605,9.91137 -45.8811,16.69007 -69.07754,18.74142 l -4.91668,0.43481 0,-2.29497 c 0,-1.26225 0.0731,-2.29498 0.16249,-2.29498 2.5804,0 19.02542,-2.40933 25.86906,-3.79006 28.97278,-5.84523 58.50663,-19.34298 81.50104,-37.24809 22.46804,-17.49521 42.49087,-41.7307 55.09896,-66.69135 12.82867,-25.39729 18.88455,-48.91536 20.77905,-80.69539 1.8047,-30.27455 -3.50428,-58.41144 -16.61197,-88.04059 C 422.04982,142.67467 400.31904,116.06256 370.71345,94.925377 340.69776,73.49542 306.21227,61.396812 268.41969,59.037485 l -6.81992,-0.425748 0,-2.534909 0,-2.534892 6.50271,0.423672 c 28.93354,1.885107 55.83909,9.246333 81.36315,22.260535 30.60784,15.606314 56.45754,38.972557 76.17015,68.852317 20.52141,31.1057 31.02282,64.71322 32.80798,104.99498 l 0.14053,3.17206 5.70968,0 5.70972,0 -0.1804,-5.7097 C 468.49452,205.48272 454.5425,164.22016 430.46033,131.12142 411.3399,104.84215 387.84399,84.055212 359.58677,68.419251 352.33976,64.409173 337.6923,57.529785 336.40114,57.529785 c -0.80081,0 -0.3212,-3.679953 0.59972,-4.600838 1.00414,-1.004137 19.37001,7.704408 31.66235,15.013305 40.74078,24.224057 74.07925,63.156778 91.04218,106.319108 9.48553,24.13591 15.00569,52.18567 15.04458,76.44649 l 0.0135,8.24734 -7.77222,0 -7.77224,0 -0.44954,3.80647 c -0.24725,2.09356 -0.90252,8.08873 -1.45611,13.32262 -3.00196,28.38003 -11.75627,56.22318 -24.73414,78.66694 -9.97102,17.24373 -21.13116,31.30352 -37.4036,47.12205 -5.84819,5.68508 -10.47799,10.67499 -10.30086,11.10218 0.17686,0.42679 2.70969,3.77357 5.62836,7.43727 2.91873,3.66374 7.23926,9.14522 9.60124,12.18106 l 4.29445,5.51972 -3.67603,2.91575 c -13.73772,10.89647 -35.59184,23.69102 -52.45156,30.70785 l -6.10031,2.53886 -0.99875,-1.93135 z"
     id="Cicle8-1"
     inkscape:connector-curvature="0" />
  <path
     style="fill:#000000;fill-opacity:1;stroke:none;display:inline"
     d="M 316.33193,50.515155 C 302.90457,46.393237 285.48866,43.34064 270.48151,42.47865 l -8.56453,-0.491931 0,-2.220443 0,-2.220437 7.29572,0.161944 c 9.17754,0.203728 20.60137,1.630069 32.03771,4.000122 8.48562,1.758552 23.48988,5.793691 24.20594,6.509781 0.18683,0.186788 0.14706,1.21649 -0.0883,2.288209 -0.53062,2.41586 -1.19428,2.416537 -9.03611,0.0093 z"
     id="Cicle8-2"
     inkscape:connector-curvature="0" />
  <path
     style="fill:#000000;fill-opacity:1;stroke:none;display:inline"
     d="m 397.84002,419.33189 -1.64598,-1.64594 10.62207,-10.53179 c 30.62668,-30.36652 49.65538,-65.05649 58.42745,-106.51514 1.44499,-6.82941 4.44292,-26.41093 4.44292,-29.01988 0,-0.16111 0.99918,-0.29294 2.22042,-0.29294 2.10848,0 2.22046,0.11038 2.22046,2.18795 0,1.20337 -0.43257,5.55701 -0.96128,9.67477 -4.62543,36.02472 -17.41485,69.35359 -37.32037,97.25594 -8.50909,11.92751 -20.00523,25.08788 -30.91818,35.39403 l -5.44153,5.13898 z"
     id="Cicle8-3"
     inkscape:connector-curvature="0" />
  <path
     style="fill:#000000;fill-opacity:1;stroke:none;display:inline"
     d="m 237.28741,489.5245 c -3.07848,-0.27307 -8.1694,-0.84799 -11.31315,-1.27763 l -5.71591,-0.78109 0.42614,-2.28179 c 0.23438,-1.25499 0.49435,-2.35166 0.5777,-2.43705 0.0833,-0.0854 3.41233,0.34095 7.39774,0.94743 10.5521,1.60571 44.30808,1.57029 56.41301,-0.0592 16.61318,-2.23642 37.23217,-6.77427 37.82724,-8.32509 0.15144,-0.39457 -1.43484,-4.68768 -3.52504,-9.5402 -2.09025,-4.85256 -3.74029,-8.86638 -3.66683,-8.91959 0.0735,-0.0532 1.41823,-0.49398 2.9884,-0.97944 l 2.85484,-0.88269 4.26482,10.28762 c 2.34562,5.65817 4.43346,10.95971 4.63965,11.7812 0.35602,1.41872 0.0311,1.59329 -6.4852,3.48082 -17.04517,4.93755 -30.88731,7.43372 -50.00004,9.01659 -8.70064,0.72058 -28.40448,0.70454 -36.68337,-0.0297 z"
     id="Cicle9-1"
     inkscape:connector-curvature="0" />
  <path
     style="fill:#000000;fill-opacity:1;stroke:none;display:inline"
     d="m 182.25351,38.720547 c -0.38333,-0.995017 -1.23958,-3.226425 -1.90281,-4.958683 -0.66323,-1.732258 -0.99591,-3.344423 -0.73929,-3.582593 0.25662,-0.238161 3.1283,-1.309428 6.38152,-2.380583 23.66681,-7.792568 57.70735,-11.931764 84.6585,-10.294164 9.81245,0.596223 23.73554,2.181416 24.32345,2.7693 0.0954,0.09539 -0.18093,2.45045 -0.61404,5.233466 l -0.78744,5.06003 -2.5056,-0.02762 c -1.37807,-0.0152 -5.36045,-0.363057 -8.84968,-0.773047 -21.75825,-2.556609 -48.30282,-1.222259 -72.64003,3.651495 -7.84798,1.571625 -21.85124,5.235577 -25.52622,6.678935 -0.82385,0.323565 -1.27704,-0.02337 -1.79836,-1.376532 z"
     id="Cicle9-2"
     inkscape:connector-curvature="0" />
  <path
     style="fill:#000000;fill-opacity:1;stroke:none;display:inline"
     d="m 244.15347,508.18269 c -11.22351,-0.88391 -19.80666,-1.83798 -28.02905,-3.11553 C 173.21105,498.39934 133.38988,480.63105 97.800344,452.27062 87.22037,443.83971 67.718755,424.42539 59.701907,414.34271 29.125184,375.88684 9.8519734,329.21242 4.968725,281.79398 3.8993832,271.41011 3.748019,245.91588 4.6899977,234.84759 9.2273184,181.53433 28.127848,134.88657 61.466966,94.718323 68.575298,86.153915 81.472284,72.587609 87.330412,67.512638 l 3.810038,-3.300703 4.911175,5.287488 4.911175,5.287488 5.93383,-4.707727 c 13.50314,-10.713023 29.34914,-20.912564 43.46131,-27.974623 6.73072,-3.368213 20.94299,-9.316796 22.25954,-9.316796 0.7045,0 0.74367,0.07853 3.05619,6.125486 l 1.49339,3.905072 -5.20586,2.067396 C 119.48948,65.723822 74.273003,108.70996 50.779515,160.09002 22.9395,220.9759 22.870563,289.95196 50.589087,350.60275 c 12.225633,26.75082 30.848824,51.96692 53.860123,72.92737 l 3.67256,3.34527 -4.30697,4.73187 c -7.267647,7.98458 -7.022502,7.54623 -5.266,9.41593 0.823569,0.87666 1.85902,1.5939 2.30102,1.5939 0.442,0 2.31925,-1.75922 4.17169,-3.90936 1.85243,-2.15018 4.24131,-4.89805 5.3086,-6.10637 l 1.94056,-2.19693 6.16173,4.81661 c 15.37797,12.0209 34.83502,23.29082 52.44662,30.37814 11.11041,4.47109 29.33342,9.98104 40.44369,12.22866 2.42001,0.48954 2.47236,0.85076 1.02211,7.05238 l -1.05598,4.51569 -5.45468,-1.192 c -23.43129,-5.12042 -46.48073,-13.8595 -66.35846,-25.15959 -6.94314,-3.94703 -22.64157,-14.24556 -23.70949,-15.55398 -0.47888,-0.58673 -1.20242,-1.06678 -1.60785,-1.06678 -0.76026,0 -2.91395,3.19297 -2.91395,4.3201 0,0.91376 7.50169,6.34304 16.88429,12.21996 32.96824,20.65 73.47149,33.52709 112.53551,35.77813 3.66373,0.21114 7.87463,0.53376 9.35756,0.71696 l 2.69624,0.33313 0,4.40199 0,4.40201 -3.01344,-0.10665 c -1.6574,-0.0587 -4.15539,-0.1966 -5.5511,-0.3065 z"
     id="Cicle10-1"
     inkscape:connector-curvature="0" />
  <path
     style="fill:#000000;fill-opacity:1;stroke:none;display:inline"
     d="m 258.42771,504.21416 0,-4.38168 6.18551,-0.3995 c 19.1456,-1.23655 29.15521,-2.45623 42.34688,-5.16004 36.9491,-7.57323 73.79112,-25.21546 104.99499,-50.27816 8.82027,-7.0844 26.63058,-25.15368 34.49977,-35.00145 7.08084,-8.86116 17.7255,-24.45442 22.73659,-33.30655 18.87665,-33.34558 29.28028,-69.23573 31.33122,-108.08576 l 0.43966,-8.32862 4.34605,0 4.34596,0 -0.006,3.96506 c -0.0261,15.79511 -4.27401,43.41059 -9.54864,62.07406 -15.95442,56.4526 -54.42794,108.90165 -103.38833,140.94418 -32.93759,21.55631 -68.97904,35.03472 -107.19696,40.0884 -7.30984,0.96661 -23.32977,2.23369 -28.38989,2.24546 l -2.69627,0.006 0,-4.38167 z"
     id="Cicle10-2"
     inkscape:connector-curvature="0" />
  <path
     style="fill:#000000;fill-opacity:1;stroke:none;display:inline"
     d="m 469.39871,167.75865 c -3.23728,-7.72942 -10.23282,-21.74582 -14.36639,-28.78476 -9.68179,-16.48684 -20.21324,-30.05392 -34.93991,-45.010877 l -10.66355,-10.830362 1.78917,-1.714112 1.78916,-1.714112 10.74256,10.958447 c 15.9947,16.316226 27.07995,30.847786 37.39652,49.023096 6.02839,10.62041 14.8843,29.90052 14.8843,32.40424 0,0.68772 -1.88351,1.50665 -3.51442,1.52808 -0.36286,0.005 -1.76566,-2.63208 -3.11744,-5.85964 z"
     id="Cicle10-3"
     inkscape:connector-curvature="0" />
  <path
     style="fill:#000000;fill-opacity:1;stroke:none;display:inline"
     d="m 393.54563,70.498626 c -25.4178,-18.327021 -52.2337,-30.90603 -81.35163,-38.161079 -9.77913,-2.436586 -9.7955,-2.447106 -8.8185,-5.667892 l 0.41255,-1.360037 8.88176,2.178089 c 27.24413,6.681125 50.39999,16.789098 73.59165,32.12412 8.78404,5.808241 16.81188,11.916614 16.81188,12.79206 0,0.72409 -1.94783,2.889392 -2.59918,2.889392 -0.15334,0 -3.27121,-2.157589 -6.92853,-4.794653 z"
     id="Cicle10-4"
     inkscape:connector-curvature="0" />
  <path
     style="fill:#000000;fill-opacity:1;stroke:none;display:inline"
     d="m 504.35765,242.30636 c -0.86112,-17.95498 -4.37016,-38.85682 -9.34659,-55.67399 -1.44556,-4.88496 -2.76277,-9.34512 -2.92716,-9.91146 -0.20893,-0.71969 0.32576,-1.24746 1.77585,-1.75295 1.14109,-0.39779 2.30812,-0.48983 2.59341,-0.20453 0.79359,0.79354 5.25561,16.04745 7.09073,24.23995 3.37341,15.0605 6.11045,36.27679 6.11045,47.36549 l 0,4.65619 -2.43925,0 -2.4393,0 z"
     id="Cicle11-1"
     inkscape:connector-curvature="0" />
</svg>
